HIERARCHY
ROOT Hips
{
	OFFSET 0.00000 0.00000 0.00000
	CHANNELS 6 Xposition Yposition Zposition Zrotation Yrotation Xrotation 
	JOINT LHipJoint
	{
		OFFSET 0 0 0
		CHANNELS 3 Zrotation Yrotation Xrotation
		JOINT LeftHip
		{
			OFFSET 1.43652 -1.81092 0.91346
			CHANNELS 3 Zrotation Yrotation Xrotation
			JOINT LeftKnee
			{
				OFFSET 2.45984 -6.75837 0.00000
				CHANNELS 3 Zrotation Yrotation Xrotation
				JOINT LeftAnkle
				{
					OFFSET 2.63718 -7.24559 0.00000
					CHANNELS 3 Zrotation Yrotation Xrotation
					JOINT LeftToe
					{
						OFFSET 0.19690 -0.54098 2.12239
						CHANNELS 3 Zrotation Yrotation Xrotation
						End Site
						{
							OFFSET 0.00000 -0.00000 1.10116
						}
					}
				}
			}
		}
	}
	JOINT RHipJoint
	{
		OFFSET 0 0 0
		CHANNELS 3 Zrotation Yrotation Xrotation
		JOINT RightHip
		{
			OFFSET -1.35116 -1.81092 0.91345
			CHANNELS 3 Zrotation Yrotation Xrotation
			JOINT RightKnee
			{
				OFFSET -2.55576 -7.02189 0.00000
				CHANNELS 3 Zrotation Yrotation Xrotation
				JOINT RightAnkle
				{
					OFFSET -2.61938 -7.19669 0.00000
					CHANNELS 3 Zrotation Yrotation Xrotation
					JOINT RightToe
					{
						OFFSET -0.32509 -0.89318 2.23646
						CHANNELS 3 Zrotation Yrotation Xrotation
						End Site
						{
							OFFSET -0.00000 -0.00000 1.19625
						}
					}
				}
			}
		}
	}
	JOINT lowerback
	{
		OFFSET 0 0 0
		CHANNELS 3 Zrotation Yrotation Xrotation
		JOINT Chest
		{
			OFFSET 0.05193 2.08077 -0.11958
			CHANNELS 3 Zrotation Yrotation Xrotation
			JOINT Chest2
			{
				OFFSET 0.04960 2.08447 0.01967
				CHANNELS 3 Zrotation Yrotation Xrotation
				JOINT lowerneck
				{
					OFFSET 0 0 0
					CHANNELS 3 Zrotation Yrotation Xrotation
					JOINT Neck
					{
						OFFSET -0.10699 1.82066 0.27584
						CHANNELS 3 Zrotation Yrotation Xrotation
						JOINT Head
						{
							OFFSET 0.14949 1.84747 -0.32279
							CHANNELS 3 Zrotation Yrotation Xrotation
							End Site
							{
								OFFSET 0.04969 1.88916 -0.14562
							}
						}
					}
				}
				JOINT LeftCollar
				{
					OFFSET 0 0 0
					CHANNELS 3 Zrotation Yrotation Xrotation
					JOINT LeftShoulder
					{
						OFFSET 3.73629 1.27211 -0.12847
CHANNELS 3 Zrotation Xrotation Yrotation
						JOINT LeftElbow
						{
OFFSET 0 -5.109950 0.000000
CHANNELS 3 Zrotation Xrotation Yrotation
							JOINT LeftWrist
							{
OFFSET 0 -3.212070 0.000000
CHANNELS 3 Zrotation Xrotation Yrotation
								JOINT lhand
								{
									OFFSET 0 0 0
CHANNELS 3 Zrotation Xrotation Yrotation
									JOINT LFingers
									{
OFFSET 0 -0.633490 0.000000
CHANNELS 3 Zrotation Xrotation Yrotation
										End Site
										{
OFFSET 0 -0.510740 0.000000
										}
									}
								}
								JOINT LThumb
								{
OFFSET 0 0.000000 0.000000
CHANNELS 3 Zrotation Xrotation Yrotation
									End Site
									{
OFFSET 0 -0.518530 0.518530
									}
								}
							}
						}
					}
				}
				JOINT RightCollar
				{
					OFFSET 0 0 0
					CHANNELS 3 Zrotation Yrotation Xrotation
					JOINT RightShoulder
					{
						OFFSET -3.70251 1.29541 -0.35354
CHANNELS 3 Zrotation Xrotation Yrotation
						JOINT RightElbow
						{
OFFSET 0 -5.251090 0.000000
CHANNELS 3 Zrotation Xrotation Yrotation
							JOINT RightWrist
							{
OFFSET 0 -3.283640 0.000000
CHANNELS 3 Zrotation Xrotation Yrotation
								JOINT rhand
								{
									OFFSET 0 0 0
CHANNELS 3 Zrotation Xrotation Yrotation
									JOINT RFingers
									{
OFFSET 0 -0.599740 0.000000
CHANNELS 3 Zrotation Xrotation Yrotation
										End Site
										{
OFFSET 0 -0.483530 0.000000
										}
									}
								}
								JOINT RThumb
								{
OFFSET 0 0.000000 0.000000
CHANNELS 3 Zrotation Xrotation Yrotation
									End Site
									{
OFFSET 0 -0.490910 0.490910
									}
								}
							}
						}
					}
				}
			}
		}
	}
}
MOTION
Frames: 5
Frame Time: 0.008333333333333333
5.793400 17.821100 -3.123600 -1.088600 -12.442000 8.794900 0.000000 0.000000 0.000000 -18.655300 -7.022500 -15.460600 1.036100 6.474200 18.166700 0.081400 -5.888200 -6.123400 0.000000 -0.024200 -0.066500 0.000000 0.000000 0.000000 14.760300 -8.558400 -9.442300 -1.014600 -6.408600 17.974600 0.593200 -22.458800 -27.371100 -0.151400 -2.507300 6.909900 -4.029800 1.270900 1.348900 0.891900 1.604800 -2.292700 3.111000 0.911100 -3.257500 -22.911400 -18.493800 3.529900 21.446900 -28.047800 9.446700 7.327700 -13.895500 8.753100 0.000000 0.000000 0.000000 4.728100 4.465700 -45.872900 101.042500 -59.534200 69.548100 7.021700 -58.767000 -14.815600 0.000000 0.000000 0.000000 -7.125000 0.000000 0.000000 -18.758900 44.060800 -0.451500 0.000000 0.000000 0.000000 0.446500 -26.364900 61.223300 -47.447300 -51.912600 -24.150000 31.558400 -16.366600 -5.378600 0.000000 0.000000 0.000000 7.125000 0.000000 -0.000000 38.553400 21.725300 28.806800
5.785976 17.821722 -3.111887 -1.042263 -12.264123 8.869794 0.000000 0.000000 0.000000 -18.680032 -7.021230 -15.502537 1.030122 6.455876 18.113040 0.075532 -6.099087 -6.092907 0.000000 0.001729 0.004819 0.000000 0.000000 0.000000 14.749238 -8.735249 -9.605310 -1.032426 -6.462811 18.133420 0.565041 -22.356244 -27.429177 -0.147077 -2.471582 6.810870 -4.128504 1.307740 1.243952 0.852584 1.654853 -2.276460 3.125993 0.936238 -3.187758 -22.856574 -18.541574 3.538200 21.434978 -28.094186 9.354986 7.307480 -13.917916 8.721378 0.000000 0.000000 0.000000 4.763382 4.395308 -45.664089 101.196763 -59.520918 69.681078 6.937058 -58.572939 -15.385899 0.000000 0.000000 0.000000 -7.125000 0.000000 0.000000 -19.031776 44.592664 -0.198527 0.000000 0.000000 0.000000 -0.433158 -25.430721 69.264503 -57.401066 -55.576652 -32.187779 -16.031115 -50.422835 10.055782 0.000000 0.000000 0.000000 7.125000 0.000000 0.000000 9.640476 40.249459 1.141176
5.777720 17.822745 -3.099607 -1.024505 -12.083853 8.961699 0.000000 0.000000 0.000000 -18.669508 -7.016203 -15.572462 1.026499 6.445029 18.081176 0.069532 -6.312039 -6.066992 0.000000 0.038153 0.104845 0.000000 0.000000 0.000000 14.777797 -8.892433 -9.787379 -1.051751 -6.521277 18.304573 0.551907 -22.309079 -27.457158 -0.139630 -2.408484 6.635891 -4.208077 1.351142 1.081187 0.821117 1.717985 -2.208397 3.140107 0.964802 -3.032366 -22.832755 -18.628830 3.482610 21.531159 -28.191839 9.188290 7.305758 -13.958578 8.711429 0.000000 0.000000 0.000000 4.803135 4.188017 -45.383038 101.385253 -59.504522 69.843520 6.763794 -58.227493 -16.652744 0.000000 0.000000 0.000000 -7.125000 0.000000 0.000000 -19.648880 45.771062 0.388935 0.000000 0.000000 0.000000 -0.375661 -25.669702 69.487273 -57.330779 -55.555638 -32.129760 -16.045325 -49.799082 9.900851 0.000000 0.000000 0.000000 7.125000 0.000000 0.000000 9.598651 40.092375 1.173703
5.771597 17.824068 -3.086259 -1.009169 -11.864901 9.052653 0.000000 0.000000 0.000000 -18.661817 -7.077674 -15.620629 1.023066 6.434530 18.050558 0.064464 -6.481094 -6.043622 0.000000 0.041892 0.115144 0.000000 0.000000 0.000000 14.801959 -9.097608 -9.974526 -1.071410 -6.579964 18.476855 0.533286 -22.229385 -27.476967 -0.132632 -2.347118 6.465889 -4.268539 1.398548 0.960532 0.785200 1.785254 -2.151048 3.137822 0.995711 -2.911732 -22.827441 -18.717169 3.419540 21.686888 -28.308188 9.050829 7.319369 -14.005915 8.730624 0.000000 0.000000 0.000000 4.853701 4.008560 -45.314186 101.401331 -59.503064 69.857327 6.875012 -58.235860 -16.476936 0.000000 0.000000 0.000000 -7.125000 0.000000 0.000000 -19.483656 45.618489 0.309276 0.000000 0.000000 0.000000 -0.287149 -25.913580 69.587115 -57.253331 -55.532446 -32.065943 -16.044649 -49.765882 9.807384 0.000000 0.000000 0.000000 7.125000 0.000000 0.000000 9.581530 39.996809 1.194288
5.764839 17.825979 -3.072524 -1.033435 -11.614195 9.149756 0.000000 0.000000 0.000000 -18.608499 -7.144369 -15.684538 1.023379 6.435371 18.053069 0.059118 -6.665457 -6.026424 0.000000 0.025608 0.070349 0.000000 0.000000 0.000000 14.872401 -9.266620 -10.122959 -1.088500 -6.630611 18.625509 0.515681 -22.179094 -27.536098 -0.126860 -2.295899 6.324177 -4.334635 1.425224 0.933173 0.796968 1.819987 -2.205672 3.185598 1.016729 -2.958679 -22.882237 -18.715211 3.581944 21.791214 -28.338980 8.958812 7.369145 -14.032685 8.706750 0.000000 0.000000 0.000000 4.839834 4.039742 -45.219944 101.452445 -59.498587 69.901398 7.018102 -58.328758 -16.174524 0.000000 0.000000 0.000000 -7.125000 0.000000 0.000000 -19.244274 45.349612 0.172544 0.000000 0.000000 0.000000 -0.192536 -25.915923 69.663377 -57.124478 -55.493687 -31.959742 -15.936590 -49.250517 9.657264 0.000000 0.000000 0.000000 7.125000 0.000000 0.000000 9.646618 39.834654 1.241529
